<svg id="Capa_1" enable-background="new 0 0 512.054 512.054" height="512" viewBox="0 0 512.054 512.054" width="512" xmlns="http://www.w3.org/2000/svg"><g><path d="m390.013 161.709c8.121 8.169 14.883 17.315 20.178 27.172.836-4.69 1.298-9.509 1.298-14.435 0-45.241-36.806-82.047-82.047-82.047-4.574 0-9.057.394-13.429 1.117 4.591 10.959 7.585 22.746 8.685 35.071 24.665 3.662 47.402 15.105 65.315 33.122z"/><path d="m300.062 66.315c9.368-2.548 19.216-3.916 29.38-3.916 61.783 0 112.047 50.264 112.047 112.047 0 20.112-5.33 39.001-14.646 55.335l11.237-.03c15.003 0 29.525 3.206 42.788 9.282l1.68-32.994 29.506-45.301-29.506-45.302-2.751-54.008-50.522-19.273-33.933-42.128-52.214 14.147-51.715-14.011-30.111 33.83c15.12 7.906 28.334 18.973 38.76 32.322z"/><path d="m490.162 280.247c-13.963-13.872-32.459-21.496-52.082-21.496-.142 0-43.291.118-43.291.118l.145-14.017c.245-23.654-8.807-45.92-25.486-62.695-16.582-16.678-38.634-25.823-62.136-25.823-.137 0-11.142 0-11.142 0v-17.106c0-49.447-40.228-89.675-89.675-89.675s-89.675 40.228-89.675 89.675v17.917c-65.122 4.18-116.82 58.49-116.82 124.648 0 31.888 11.926 61.669 32.618 84.266 3.991-89.238 77.593-160.364 167.816-160.364 92.782 0 167.997 75.215 167.997 167.997 0 11.299-1.124 22.334-3.25 33.008h72.845c19.772 0 38.357-7.703 52.331-21.69 13.975-13.987 21.661-32.579 21.643-52.351-.018-19.826-7.774-38.44-21.838-52.412z"/><path d="m337.649 389.485h-31.286v-30.193h31.286c-7.006-64.313-58.228-115.535-122.541-122.541v31.286h-30.193v-31.286c-64.313 7.006-115.535 58.228-122.541 122.541h31.286v30.193h-31.287c7.006 64.314 58.228 115.536 122.541 122.542v-31.286h30.193v31.286c64.314-7.006 115.536-58.228 122.542-122.542zm-122.542-84.863v89.974l-45.362 37.523-19.245-23.264 34.415-28.468v-75.765z"/></g></svg>