<svg width="511" height="512" xmlns="http://www.w3.org/2000/svg">

 <g>
  <title>background</title>
  <rect fill="none" id="canvas_background" height="514" width="514" y="-1" x="-1"/>
 </g>
 <g>
  <title>Layer 1</title>
  <path fill="#007f3f" id="svg_1" d="m206.23047,0l30,0l0,44.5625l-30,0l0,-44.5625zm0,0"/>
  <path fill="#007f3f" id="svg_2" d="m297.10938,61.39844l22.32421,-38.57031l25.96485,15.02734l-22.32422,38.57031l-25.96484,-15.02734zm0,0"/>
  <path fill="#007f3f" id="svg_3" d="m367.36328,121.53906l38.64844,-22.19531l14.9375,26.01953l-38.64453,22.19141l-14.94141,-26.01563zm0,0"/>
  <path fill="#007f3f" id="svg_4" d="m397.92188,238.71875l0.10156,-30l44.5625,0.15234l-0.10156,30l-44.5625,-0.15234zm0,0"/>
  <path fill="#007f3f" id="svg_5" d="m365.76172,325.45703l15.11719,-25.91406l38.49609,22.45703l-15.11719,25.91406l-38.49609,-22.45703zm0,0"/>
  <path fill="#007f3f" id="svg_6" d="m97.66797,37.86328l25.96484,-15.03125l22.32422,38.57031l-25.96484,15.03125l-22.32422,-38.57031zm0,0"/>
  <path fill="#007f3f" id="svg_7" d="m22.13672,125.34375l14.94141,-26.01172l38.64062,22.19531l-14.94141,26.01172l-38.64062,-22.19531zm0,0"/>
  <path fill="#007f3f" id="svg_8" d="m0.5,208.87109l44.5625,-0.15234l0.10156,30l-44.5625,0.15234l-0.10156,-30zm0,0"/>
  <path fill="#007f3f" id="svg_9" d="m23.71484,322.02344l38.4961,-22.45703l15.11719,25.91406l-38.4961,22.45703l-15.11719,-25.91406zm0,0"/>
  <path fill="#007f3f" id="svg_10" d="m191.29688,482l59.80468,0l0,30l-59.80468,0l0,-30zm0,0"/>
  <path fill="#007f3f" id="svg_11" d="m135.26563,380.51172l171.86718,0l0,86.48828l-171.86718,0l0,-86.48828zm0,0"/>
  <path fill="#007f3f" id="svg_12" d="m221.19922,68.21484c-84.99219,0 -154.13672,69.14454 -154.13672,154.14063c0,27.22656 7.19922,53.99609 20.82422,77.40625c11.75391,20.19531 28.02344,37.53516 47.37891,50.55859l0,0.19141l171.86718,0l0,-0.19141c19.35547,-13.02344 35.62891,-30.35937 47.37891,-50.55859c13.625,-23.41016 20.82812,-50.17969 20.82812,-77.40625c0,-84.99219 -69.14843,-154.14063 -154.14062,-154.14063zm0,225.32813c-9.13281,0 -16.53906,-7.40235 -16.53906,-16.53516c0,-9.13672 7.40625,-16.53906 16.53906,-16.53906c9.13672,0 16.53906,7.40234 16.53906,16.53906c0,9.13281 -7.40625,16.53516 -16.53906,16.53516zm32.23047,-37.95313c-6.98438,-11.26562 -19.03516,-17.98828 -32.23047,-17.98828c-13.19531,0 -25.24219,6.72266 -32.22656,17.98438l-25.4961,-15.8125c12.4961,-20.14453 34.07813,-32.17188 57.72657,-32.17188c23.64453,0 45.22656,12.02735 57.72265,32.17188l-25.49609,15.8164zm47.71094,-28.625c-17.31641,-27.91797 -47.20313,-44.58593 -79.94141,-44.58593s-62.625,16.66796 -79.94141,44.58593l-25.49218,-15.8125c22.82812,-36.80078 62.24218,-58.77343 105.4375,-58.77343c43.1875,0 82.60546,21.97265 105.43359,58.77343l-25.49609,15.8125zm0,0"/>
 </g>
</svg>