<svg width="512" height="512" xmlns="http://www.w3.org/2000/svg">

 <g>
  <title>background</title>
  <rect fill="none" id="canvas_background" height="602" width="802" y="-1" x="-1"/>
 </g>
 <g>
  <title>Layer 1</title>
  <g id="svg_1">
   <path fill="#a04db7" id="svg_2" d="m434.931,227.069c-6.724,-43.037 -44.034,-76.069 -88.931,-76.069c-16.89,0 -33.12,4.673 -47.197,13.389c-21.416,-35.992 -59.971,-58.389 -102.803,-58.389c-66.167,0 -120,53.833 -120,120c0,0.41 0,0.835 0.015,1.245c-42.525,7.163 -76.015,44.238 -76.015,88.755c0,49.629 41.371,90 91,90l330,0c49.629,0 91,-40.371 91,-90c0,-44.897 -34.032,-82.207 -77.069,-88.931z"/>
  </g>
 </g>
</svg>